<mxfile host="app.diagrams.net" modified="2022-03-16T01:57:13.737Z" agent="5.0 (Windows NT 10.0; Win64; x64) AppleWebKit/537.36 (KHTML, like Gecko) Chrome/99.0.4844.51 Safari/537.36" etag="n87xOl09mzG4tpmeFKCg" version="17.1.2" type="github">
  <diagram id="SCJoDIGsKwOt2shbwY_U" name="Page-1">
    <mxGraphModel dx="1422" dy="762" grid="1" gridSize="10" guides="1" tooltips="1" connect="1" arrows="1" fold="1" page="1" pageScale="1" pageWidth="827" pageHeight="1169" math="0" shadow="0">
      <root>
        <mxCell id="0" />
        <mxCell id="1" parent="0" />
        <mxCell id="6oeqmS8gKTmLkHaQEGi7-50" value="" style="rounded=0;whiteSpace=wrap;html=1;fontColor=#FF9933;" parent="1" vertex="1">
          <mxGeometry x="207" y="110" width="290" height="360" as="geometry" />
        </mxCell>
        <mxCell id="6oeqmS8gKTmLkHaQEGi7-1" value="" style="rounded=0;whiteSpace=wrap;html=1;" parent="1" vertex="1">
          <mxGeometry x="250" y="160" width="210" height="170" as="geometry" />
        </mxCell>
        <mxCell id="6oeqmS8gKTmLkHaQEGi7-2" value="" style="endArrow=classic;html=1;rounded=0;" parent="1" edge="1">
          <mxGeometry width="50" height="50" relative="1" as="geometry">
            <mxPoint x="284" y="130" as="sourcePoint" />
            <mxPoint x="284" y="160" as="targetPoint" />
          </mxGeometry>
        </mxCell>
        <mxCell id="6oeqmS8gKTmLkHaQEGi7-9" value="连接 / 线程处理" style="rounded=1;whiteSpace=wrap;html=1;strokeWidth=2;fillWeight=4;hachureGap=8;hachureAngle=45;fillColor=#fff2cc;sketch=1;strokeColor=#d6b656;" parent="1" vertex="1">
          <mxGeometry x="284" y="170" width="130" height="30" as="geometry" />
        </mxCell>
        <mxCell id="6oeqmS8gKTmLkHaQEGi7-10" value="查询缓存" style="rounded=1;whiteSpace=wrap;html=1;strokeWidth=2;fillWeight=4;hachureGap=8;hachureAngle=45;sketch=1;fillColor=#eeeeee;strokeColor=#36393d;" parent="1" vertex="1">
          <mxGeometry x="270" y="220" width="60" height="50" as="geometry" />
        </mxCell>
        <mxCell id="6oeqmS8gKTmLkHaQEGi7-11" value="解析器" style="rounded=1;whiteSpace=wrap;html=1;strokeWidth=2;fillWeight=4;hachureGap=8;hachureAngle=45;fillColor=#dae8fc;sketch=1;strokeColor=#6c8ebf;" parent="1" vertex="1">
          <mxGeometry x="370" y="220" width="60" height="50" as="geometry" />
        </mxCell>
        <mxCell id="6oeqmS8gKTmLkHaQEGi7-12" value="" style="endArrow=classic;html=1;rounded=0;entryX=0.5;entryY=0;entryDx=0;entryDy=0;" parent="1" target="6oeqmS8gKTmLkHaQEGi7-10" edge="1">
          <mxGeometry width="50" height="50" relative="1" as="geometry">
            <mxPoint x="299.5" y="200" as="sourcePoint" />
            <mxPoint x="300" y="210" as="targetPoint" />
          </mxGeometry>
        </mxCell>
        <mxCell id="6oeqmS8gKTmLkHaQEGi7-14" value="" style="endArrow=classic;html=1;rounded=0;entryX=0.5;entryY=0;entryDx=0;entryDy=0;" parent="1" edge="1">
          <mxGeometry width="50" height="50" relative="1" as="geometry">
            <mxPoint x="400" y="200" as="sourcePoint" />
            <mxPoint x="400.5" y="220" as="targetPoint" />
          </mxGeometry>
        </mxCell>
        <mxCell id="6oeqmS8gKTmLkHaQEGi7-17" value="" style="endArrow=classic;html=1;rounded=0;exitX=0;exitY=0.5;exitDx=0;exitDy=0;entryX=1;entryY=0.5;entryDx=0;entryDy=0;" parent="1" source="6oeqmS8gKTmLkHaQEGi7-11" target="6oeqmS8gKTmLkHaQEGi7-10" edge="1">
          <mxGeometry width="50" height="50" relative="1" as="geometry">
            <mxPoint x="340" y="220" as="sourcePoint" />
            <mxPoint x="340" y="260" as="targetPoint" />
          </mxGeometry>
        </mxCell>
        <mxCell id="6oeqmS8gKTmLkHaQEGi7-19" value="优化器" style="rounded=1;whiteSpace=wrap;html=1;strokeWidth=2;fillWeight=4;hachureGap=8;hachureAngle=45;fillColor=#dae8fc;sketch=1;strokeColor=#6c8ebf;" parent="1" vertex="1">
          <mxGeometry x="274" y="290" width="156" height="20" as="geometry" />
        </mxCell>
        <mxCell id="6oeqmS8gKTmLkHaQEGi7-20" value="" style="endArrow=classic;html=1;rounded=0;" parent="1" edge="1">
          <mxGeometry width="50" height="50" relative="1" as="geometry">
            <mxPoint x="399.5" y="270" as="sourcePoint" />
            <mxPoint x="400" y="290" as="targetPoint" />
          </mxGeometry>
        </mxCell>
        <mxCell id="6oeqmS8gKTmLkHaQEGi7-21" value="" style="shape=cylinder3;whiteSpace=wrap;html=1;boundedLbl=1;backgroundOutline=1;size=15;fillColor=#cce5ff;strokeColor=#36393d;" parent="1" vertex="1">
          <mxGeometry x="250" y="350" width="30" height="60" as="geometry" />
        </mxCell>
        <mxCell id="6oeqmS8gKTmLkHaQEGi7-25" value="" style="shape=cylinder3;whiteSpace=wrap;html=1;boundedLbl=1;backgroundOutline=1;size=15;fillColor=#cce5ff;strokeColor=#36393d;" parent="1" vertex="1">
          <mxGeometry x="310" y="350" width="30" height="60" as="geometry" />
        </mxCell>
        <mxCell id="6oeqmS8gKTmLkHaQEGi7-26" value="" style="shape=cylinder3;whiteSpace=wrap;html=1;boundedLbl=1;backgroundOutline=1;size=15;fillColor=#cce5ff;strokeColor=#36393d;" parent="1" vertex="1">
          <mxGeometry x="430" y="350" width="30" height="60" as="geometry" />
        </mxCell>
        <mxCell id="6oeqmS8gKTmLkHaQEGi7-29" value="" style="shape=cylinder3;whiteSpace=wrap;html=1;boundedLbl=1;backgroundOutline=1;size=15;fillColor=#cce5ff;strokeColor=#36393d;" parent="1" vertex="1">
          <mxGeometry x="370" y="350" width="30" height="60" as="geometry" />
        </mxCell>
        <mxCell id="6oeqmS8gKTmLkHaQEGi7-34" value="储存引擎" style="text;html=1;align=center;verticalAlign=middle;resizable=0;points=[];autosize=1;strokeColor=none;fillColor=none;" parent="1" vertex="1">
          <mxGeometry x="320" y="420" width="60" height="20" as="geometry" />
        </mxCell>
        <mxCell id="6oeqmS8gKTmLkHaQEGi7-37" value="客户端" style="text;html=1;align=center;verticalAlign=middle;resizable=0;points=[];autosize=1;strokeColor=none;fillColor=none;" parent="1" vertex="1">
          <mxGeometry x="330" y="110" width="50" height="20" as="geometry" />
        </mxCell>
        <mxCell id="6oeqmS8gKTmLkHaQEGi7-39" value="" style="endArrow=classic;html=1;rounded=0;" parent="1" edge="1">
          <mxGeometry width="50" height="50" relative="1" as="geometry">
            <mxPoint x="310" y="130" as="sourcePoint" />
            <mxPoint x="310" y="160" as="targetPoint" />
          </mxGeometry>
        </mxCell>
        <mxCell id="6oeqmS8gKTmLkHaQEGi7-40" value="" style="endArrow=classic;html=1;rounded=0;" parent="1" edge="1">
          <mxGeometry width="50" height="50" relative="1" as="geometry">
            <mxPoint x="370" y="130" as="sourcePoint" />
            <mxPoint x="370" y="160" as="targetPoint" />
          </mxGeometry>
        </mxCell>
        <mxCell id="6oeqmS8gKTmLkHaQEGi7-41" value="" style="endArrow=classic;html=1;rounded=0;" parent="1" edge="1">
          <mxGeometry width="50" height="50" relative="1" as="geometry">
            <mxPoint x="340" y="130" as="sourcePoint" />
            <mxPoint x="340" y="160" as="targetPoint" />
          </mxGeometry>
        </mxCell>
        <mxCell id="6oeqmS8gKTmLkHaQEGi7-43" value="" style="endArrow=classic;html=1;rounded=0;" parent="1" edge="1">
          <mxGeometry width="50" height="50" relative="1" as="geometry">
            <mxPoint x="400" y="130" as="sourcePoint" />
            <mxPoint x="400" y="160" as="targetPoint" />
          </mxGeometry>
        </mxCell>
        <mxCell id="6oeqmS8gKTmLkHaQEGi7-44" value="" style="endArrow=classic;html=1;rounded=0;" parent="1" edge="1">
          <mxGeometry width="50" height="50" relative="1" as="geometry">
            <mxPoint x="429" y="130" as="sourcePoint" />
            <mxPoint x="429" y="160" as="targetPoint" />
          </mxGeometry>
        </mxCell>
        <mxCell id="6oeqmS8gKTmLkHaQEGi7-48" value="MySQL服务器逻辑架构图" style="text;whiteSpace=wrap;html=1;fontColor=#FF9933;" parent="1" vertex="1">
          <mxGeometry x="280" y="70" width="160" height="30" as="geometry" />
        </mxCell>
      </root>
    </mxGraphModel>
  </diagram>
</mxfile>
